<svg width="44" height="29" viewBox="0 0 44 29" fill="none" xmlns="http://www.w3.org/2000/svg">
<path fill-rule="evenodd" clip-rule="evenodd" d="M3.66535 0.233398C1.64103 0.233398 0 1.83627 0 3.81351V25.2942C0 27.2714 1.64103 28.8743 3.66535 28.8743H40.3189C42.3432 28.8743 43.9842 27.2714 43.9842 25.2942V3.81351C43.9842 1.83627 42.3432 0.233398 40.3189 0.233398H3.66535ZM24.0638 22.8037L19.7079 18.0821L20.9297 17.0444L17.8486 13.7237L19.0704 12.686L15.9894 9.36527L20.8234 5.16254L22.3639 6.77099L25.02 4.53991L26.5605 6.09648L27.5698 5.21442C27.4636 5.16254 27.344 5.09769 27.2245 5.03284C27.105 4.96799 26.9854 4.9031 26.8792 4.85122C25.3387 4.22859 23.6919 3.81351 21.939 3.81351C15.83 3.81351 10.8367 8.63888 10.8367 14.5538C10.8367 20.4688 15.83 25.2942 21.9921 25.2942C24.0107 25.2942 25.8699 24.7753 27.4635 23.8933C27.9947 23.582 28.4727 23.2707 28.9508 22.9594L26.7198 20.5207L24.0638 22.8037ZM18.008 9.52093L20.3984 12.0633L23.0545 9.78036L20.6641 7.23796L18.008 9.52093ZM24.9669 14.1388L22.5764 11.5964L19.9204 13.8793L22.3108 16.4736L24.9669 14.1388ZM24.4356 16.0066L26.8261 18.549L24.17 20.8839L21.7796 18.3415L24.4356 16.0066ZM24.6481 10.1954L22.8951 8.27568L24.8606 6.56345L26.6667 8.48322L24.6481 10.1954ZM28.4728 12.3228L26.6667 10.403L24.7013 12.1671L26.5074 14.035L28.4728 12.3228ZM28.3666 14.4501L30.1727 16.3698L28.2072 18.134L26.4011 16.1623L28.3666 14.4501ZM30.279 10.0398L28.9509 11.1813L30.1727 12.4784L31.4476 11.3369L30.279 10.0398ZM31.8195 16.2661L30.6508 14.9689L31.9257 13.8274L33.1475 15.1246L31.8195 16.2661ZM27.2511 7.39362L28.4728 8.69076L29.7477 7.54928L28.5791 6.25214L27.2511 7.39362ZM29.9602 21.9735L28.1541 20.0537L30.1196 18.3415L31.9257 20.2613L29.9602 21.9735Z" fill="#137ABE"/>
</svg>
