<svg width="34" height="50" viewBox="0 0 34 50" fill="none" xmlns="http://www.w3.org/2000/svg">
<g clip-path="url(#clip0_1804_8321)">
<path d="M1.96387 6.05214V10.0875C1.96387 21.3033 1.98504 29.0489 8.4801 35.5699C10.9819 38.0829 17.0898 42.2003 17.0898 42.2003V2.31152C10.7369 2.31152 4.38401 5.16181 1.96387 6.05214Z" fill="#66BB6A"/>
<path d="M32.2162 6.00049C29.191 5.05849 23.4432 2.31152 17.0903 2.31152V42.1973C17.0903 42.1973 23.2254 38.0829 25.7302 35.5669C32.2374 29.0307 32.2162 22.1663 32.2162 11.5826V6.00049Z" fill="#388E3C"/>
<path d="M33.5318 6.04688H0.799316V8.7513H33.5318V6.04688Z" fill="url(#paint0_linear_1804_8321)"/>
<path fill-rule="evenodd" clip-rule="evenodd" d="M25.6218 28.3693C24.5344 27.3084 23.2519 26.4576 21.8373 25.8691C20.3494 25.25 18.7606 24.9398 17.1655 24.9479C16.4001 24.9518 15.6333 25.0289 14.8755 25.1803C12.5775 25.6395 10.4635 26.7614 8.7915 28.4077C9.10115 28.8888 9.44859 29.3586 9.83843 29.8189C10.3386 29.3034 10.8933 28.8391 11.495 28.4352C13.1746 27.3079 15.1464 26.701 17.1655 26.6891C17.1857 26.689 17.206 26.6889 17.2262 26.6889V26.692C19.9607 26.6952 22.5822 27.7875 24.516 29.7294C24.5311 29.7445 24.5461 29.7596 24.561 29.7748C24.9577 29.3117 25.3096 28.844 25.6218 28.3693ZM23.2593 31.1262C22.466 30.3111 21.5133 29.6612 20.455 29.2209C19.4075 28.7851 18.2886 28.5679 17.1655 28.576C16.6356 28.5799 16.1048 28.6338 15.5802 28.7387C13.9435 29.0657 12.4402 29.8728 11.2602 31.0581C11.2215 31.0969 11.1833 31.1361 11.1454 31.1756C11.5071 31.5037 11.9485 31.8642 12.4263 32.2331C12.7396 31.9182 13.0843 31.6333 13.4564 31.3836C14.5554 30.646 15.8446 30.2471 17.1655 30.2352C17.1857 30.235 17.206 30.2349 17.2262 30.2349C19.0043 30.2373 20.7098 30.9397 21.9774 32.1899C22.4588 31.8176 22.9011 31.4548 23.2593 31.1262ZM20.5027 33.2797C19.6328 32.4988 18.4847 32.0241 17.2262 32.0241C17.2059 32.0241 17.1857 32.0242 17.1655 32.0244C15.9075 32.0397 14.7631 32.5294 13.9015 33.3236C15.5671 34.5115 17.1655 35.533 17.1655 35.533V32.0244L17.1655 35.5309C17.1655 35.5309 18.8096 34.4856 20.5027 33.2797Z" fill="#FAFAFA"/>
<path d="M16.9909 22.0756C19.7443 22.0756 21.9764 19.8335 21.9764 17.0678C21.9764 14.3021 19.7443 12.0601 16.9909 12.0601C14.2375 12.0601 12.0054 14.3021 12.0054 17.0678C12.0054 19.8335 14.2375 22.0756 16.9909 22.0756Z" fill="#FAFAFA"/>
<path d="M32.2161 5.86432V2.76486C32.2161 1.64967 30.6823 0.0908203 29.3119 0.0908203H4.61733C3.24995 0.0908203 1.96729 1.64967 1.96729 2.76486V5.86432H32.2191H32.2161Z" fill="#E0E0E0"/>
<path d="M5.69751 4.23206C6.18871 4.23206 6.58691 3.83208 6.58691 3.33869C6.58691 2.84529 6.18871 2.44531 5.69751 2.44531C5.2063 2.44531 4.80811 2.84529 4.80811 3.33869C4.80811 3.83208 5.2063 4.23206 5.69751 4.23206Z" fill="white"/>
<path d="M8.95239 4.23206C9.44359 4.23206 9.84179 3.83208 9.84179 3.33869C9.84179 2.84529 9.44359 2.44531 8.95239 2.44531C8.46119 2.44531 8.06299 2.84529 8.06299 3.33869C8.06299 3.83208 8.46119 4.23206 8.95239 4.23206Z" fill="white"/>
</g>
<defs>
<linearGradient id="paint0_linear_1804_8321" x1="17.1655" y1="5.62146" x2="17.1655" y2="7.85489" gradientUnits="userSpaceOnUse">
<stop stop-color="#263238" stop-opacity="0.35"/>
<stop offset="0.42" stop-color="#263238" stop-opacity="0.15"/>
<stop offset="0.89" stop-color="#263238" stop-opacity="0.02"/>
<stop offset="1" stop-color="#263238" stop-opacity="0"/>
</linearGradient>
<clipPath id="clip0_1804_8321">
<rect width="32.7324" height="49.0987" fill="white" transform="translate(0.799316 0.0727539)"/>
</clipPath>
</defs>
</svg>
